# xmcd
#
# Track frame offsets:
#  150
#  20059
#  32071
#  48179
#  65017
#  88546
#  106966
#  117753
#  138373
#  169132
#
# Disc length: 2529 seconds
#
# Revision: 0
# Processed by: cddbd v1.5.1PL2 Copyright (c) Steve Scherf et al.
# Submitted via: Collectorz.com_Music_Collector 6.9
#
DISCID=8109df0a
DTITLE=Various Artist - Classic Cuts 22
DYEAR=1900
DGENRE=General Rock
TTITLE0=Slash's Snakepit - Just Like Anything
TTITLE1=Motorhead - No Class
TTITLE2=Badfinger - Lay Me Down
TTITLE3=Oliver/Dawson Saxon - 747 (Strangers In The Night)
TTITLE4=One Minute Silence - Holy Man
TTITLE5=Motorhead - We Are Motorhead
TTITLE6=Soulwax - Funny
TTITLE7=World Party - What Does It Mean Now
TTITLE8=Raging Speedhorn - High Whore
TTITLE9=Meggido - Giving It All
EXTD=
EXTT0=
EXTT1=
EXTT2=
EXTT3=
EXTT4=
EXTT5=
EXTT6=
EXTT7=
EXTT8=
EXTT9=
PLAYORDER=
